<svg width="16" height="17" viewBox="0 0 16 17" fill="none" xmlns="http://www.w3.org/2000/svg">
<path d="M8.67543 16.3558C7.40767 16.3558 6.28699 16.1818 5.31339 15.8338C4.33978 15.4899 3.52154 14.9824 2.85866 14.3113C2.19579 13.6401 1.69448 12.8177 1.35476 11.8441C1.01503 10.8705 0.84517 9.75604 0.84517 8.50071C0.84517 7.28681 1.0171 6.20135 1.36097 5.24432C1.70898 4.28729 2.21236 3.47526 2.87109 2.80824C3.53397 2.13707 4.33771 1.62541 5.28232 1.27326C6.23106 0.921105 7.3041 0.745028 8.50142 0.745028C9.6656 0.745028 10.6848 0.935605 11.5589 1.31676C12.4373 1.69377 13.1706 2.20543 13.7589 2.85174C14.3513 3.4939 14.7946 4.21686 15.0888 5.0206C15.3871 5.82434 15.5362 6.65294 15.5362 7.50639C15.5362 8.10713 15.5072 8.71615 15.4492 9.33345C15.3912 9.95076 15.269 10.5183 15.0826 11.0362C14.8961 11.55 14.6082 11.9643 14.2188 12.2791C13.8335 12.594 13.3114 12.7514 12.6527 12.7514C12.3627 12.7514 12.0437 12.7058 11.6957 12.6147C11.3477 12.5236 11.039 12.3723 10.7697 12.161C10.5004 11.9498 10.3409 11.666 10.2912 11.3097H10.2166C10.1172 11.55 9.9639 11.7778 9.75675 11.9933C9.55374 12.2087 9.28652 12.3806 8.95508 12.5091C8.62778 12.6375 8.22798 12.6934 7.75568 12.6768C7.21709 12.6561 6.74272 12.536 6.33256 12.3164C5.92241 12.0927 5.57854 11.7902 5.30096 11.4091C5.02752 11.0238 4.82037 10.5784 4.67951 10.073C4.54279 9.56339 4.47443 9.01444 4.47443 8.42614C4.47443 7.86683 4.55729 7.35517 4.72301 6.89116C4.88873 6.42714 5.11867 6.02113 5.41282 5.67312C5.71112 5.32511 6.05913 5.04753 6.45685 4.84038C6.85872 4.62908 7.29167 4.49858 7.75568 4.44886C8.16998 4.40743 8.54699 4.42608 8.88672 4.50479C9.22644 4.57937 9.5061 4.6933 9.72568 4.84659C9.94525 4.99574 10.084 5.16146 10.142 5.34375H10.2166V4.64773H11.5341V10.2656C11.5341 10.6136 11.6315 10.9202 11.8262 11.1854C12.0209 11.4505 12.3047 11.5831 12.6776 11.5831C13.1001 11.5831 13.4233 11.4381 13.647 11.1481C13.8749 10.8581 14.0302 10.4106 14.1131 9.80575C14.2001 9.20088 14.2436 8.42614 14.2436 7.48153C14.2436 6.92637 14.167 6.3795 14.0137 5.84091C13.8645 5.29818 13.6367 4.79066 13.3301 4.31836C13.0276 3.84606 12.6444 3.42969 12.1804 3.06925C11.7164 2.70881 11.1716 2.42708 10.546 2.22408C9.92454 2.01693 9.21816 1.91335 8.42685 1.91335C7.45324 1.91335 6.58114 2.06457 5.81055 2.36701C5.04409 2.66531 4.39157 3.10239 3.85298 3.67827C3.31854 4.25 2.91045 4.94602 2.62873 5.76634C2.35115 6.5825 2.21236 7.51053 2.21236 8.55043C2.21236 9.60689 2.35115 10.5453 2.62873 11.3656C2.91045 12.1859 3.32475 12.8778 3.87163 13.4412C4.42264 14.0047 5.10417 14.4314 5.91619 14.7214C6.72822 15.0156 7.66454 15.1626 8.72514 15.1626C9.18087 15.1626 9.63039 15.1191 10.0737 15.0321C10.517 14.9451 10.9085 14.8498 11.2482 14.7463C11.5879 14.6427 11.8324 14.5661 11.9815 14.5163L12.3295 15.6598C12.0727 15.7675 11.7371 15.8752 11.3228 15.983C10.9126 16.0907 10.4735 16.1797 10.0053 16.2502C9.54131 16.3206 9.09801 16.3558 8.67543 16.3558ZM7.95455 11.4091C8.50971 11.4091 8.95922 11.2972 9.30309 11.0735C9.64696 10.8498 9.89761 10.5121 10.055 10.0605C10.2125 9.60896 10.2912 9.0393 10.2912 8.35156C10.2912 7.65554 10.2042 7.11281 10.0302 6.72337C9.85618 6.33392 9.59931 6.06049 9.25959 5.90305C8.91986 5.74562 8.50142 5.6669 8.00426 5.6669C7.53196 5.6669 7.12802 5.79119 6.79244 6.03977C6.461 6.28421 6.2062 6.61151 6.02805 7.02166C5.85405 7.42767 5.76705 7.87098 5.76705 8.35156C5.76705 8.88187 5.83748 9.3811 5.97834 9.84925C6.1192 10.3133 6.34914 10.6903 6.66815 10.9803C6.98716 11.2662 7.41596 11.4091 7.95455 11.4091Z" fill="#999999"/>
</svg>
